<mxfile host="65bd71144e">
    <diagram id="d6c7zJH4ASqBiSlJy_f8" name="Page-1">
        <mxGraphModel dx="106" dy="67" grid="1" gridSize="10" guides="1" tooltips="1" connect="1" arrows="1" fold="1" page="1" pageScale="1" pageWidth="850" pageHeight="1100" math="0" shadow="0">
            <root>
                <mxCell id="0"/>
                <mxCell id="1" parent="0"/>
                <mxCell id="46" value="" style="group;rotation=0;" parent="1" vertex="1" connectable="0">
                    <mxGeometry x="160" y="120" width="220" height="300" as="geometry"/>
                </mxCell>
                <mxCell id="62" value="" style="group;" parent="46" vertex="1" connectable="0">
                    <mxGeometry width="219.99999999999997" height="300" as="geometry"/>
                </mxCell>
                <mxCell id="2" value="ESP32" style="rounded=0;whiteSpace=wrap;html=1;rotation=0;strokeColor=#FF3333;" parent="62" vertex="1">
                    <mxGeometry x="55.02279160940644" width="121.05014154069414" height="300" as="geometry"/>
                </mxCell>
                <mxCell id="26" value="" style="edgeStyle=none;orthogonalLoop=1;jettySize=auto;html=1;strokeColor=#FF3333;exitX=0.991;exitY=0.936;exitDx=0;exitDy=0;exitPerimeter=0;" parent="62" source="2" edge="1">
                    <mxGeometry width="80" relative="1" as="geometry">
                        <mxPoint x="45.18410604236658" y="272.128125" as="sourcePoint"/>
                        <mxPoint x="217.3438215324388" y="281.25" as="targetPoint"/>
                        <Array as="points"/>
                    </mxGeometry>
                </mxCell>
                <mxCell id="92" value="3V3" style="edgeLabel;html=1;align=center;verticalAlign=middle;resizable=0;points=[];" parent="26" vertex="1" connectable="0">
                    <mxGeometry x="-0.1132" y="1" relative="1" as="geometry">
                        <mxPoint as="offset"/>
                    </mxGeometry>
                </mxCell>
                <mxCell id="32" value="" style="edgeStyle=none;orthogonalLoop=1;jettySize=auto;html=1;strokeColor=#FF3333;exitX=0.995;exitY=0.876;exitDx=0;exitDy=0;exitPerimeter=0;" parent="62" source="2" edge="1">
                    <mxGeometry width="80" relative="1" as="geometry">
                        <mxPoint x="118.96684125239759" y="262.5" as="sourcePoint"/>
                        <mxPoint x="219.11460717747968" y="262.65000000000003" as="targetPoint"/>
                        <Array as="points"/>
                    </mxGeometry>
                </mxCell>
                <mxCell id="91" value="GND" style="edgeLabel;html=1;align=center;verticalAlign=middle;resizable=0;points=[];" parent="32" vertex="1" connectable="0">
                    <mxGeometry x="-0.0042" y="1" relative="1" as="geometry">
                        <mxPoint as="offset"/>
                    </mxGeometry>
                </mxCell>
                <mxCell id="33" value="" style="edgeStyle=none;orthogonalLoop=1;jettySize=auto;html=1;strokeColor=#FF3333;exitX=0.998;exitY=0.812;exitDx=0;exitDy=0;exitPerimeter=0;" parent="62" source="2" edge="1">
                    <mxGeometry width="80" relative="1" as="geometry">
                        <mxPoint x="118.96684125239759" y="243.825" as="sourcePoint"/>
                        <mxPoint x="219.99999999999997" y="243.75000000000006" as="targetPoint"/>
                        <Array as="points"/>
                    </mxGeometry>
                </mxCell>
                <mxCell id="90" value="D15" style="edgeLabel;html=1;align=center;verticalAlign=middle;resizable=0;points=[];" parent="33" vertex="1" connectable="0">
                    <mxGeometry x="-0.1531" y="1" relative="1" as="geometry">
                        <mxPoint as="offset"/>
                    </mxGeometry>
                </mxCell>
                <mxCell id="34" value="" style="edgeStyle=none;orthogonalLoop=1;jettySize=auto;html=1;strokeColor=#FF3333;exitX=1;exitY=0.75;exitDx=0;exitDy=0;" parent="62" source="2" edge="1">
                    <mxGeometry width="80" relative="1" as="geometry">
                        <mxPoint x="118.96684125239759" y="225.07499999999993" as="sourcePoint"/>
                        <mxPoint x="219.99999999999997" y="225" as="targetPoint"/>
                        <Array as="points"/>
                    </mxGeometry>
                </mxCell>
                <mxCell id="89" value="D2" style="edgeLabel;html=1;align=center;verticalAlign=middle;resizable=0;points=[];" parent="34" vertex="1" connectable="0">
                    <mxGeometry x="-0.1075" y="-1" relative="1" as="geometry">
                        <mxPoint as="offset"/>
                    </mxGeometry>
                </mxCell>
                <mxCell id="35" value="" style="edgeStyle=none;orthogonalLoop=1;jettySize=auto;html=1;strokeColor=#FF3333;exitX=1;exitY=0.688;exitDx=0;exitDy=0;exitPerimeter=0;" parent="62" source="2" edge="1">
                    <mxGeometry width="80" relative="1" as="geometry">
                        <mxPoint x="118.96684125239759" y="206.32499999999993" as="sourcePoint"/>
                        <mxPoint x="219.99999999999997" y="206.25" as="targetPoint"/>
                        <Array as="points"/>
                    </mxGeometry>
                </mxCell>
                <mxCell id="88" value="D4" style="edgeLabel;html=1;align=center;verticalAlign=middle;resizable=0;points=[];" parent="35" vertex="1" connectable="0">
                    <mxGeometry x="-0.1074" relative="1" as="geometry">
                        <mxPoint as="offset"/>
                    </mxGeometry>
                </mxCell>
                <mxCell id="36" value="" style="edgeStyle=none;orthogonalLoop=1;jettySize=auto;html=1;strokeColor=#FF3333;exitX=1.009;exitY=0.625;exitDx=0;exitDy=0;exitPerimeter=0;" parent="62" source="2" edge="1">
                    <mxGeometry width="80" relative="1" as="geometry">
                        <mxPoint x="118.96684125239759" y="187.57499999999993" as="sourcePoint"/>
                        <mxPoint x="219.99999999999997" y="187.5" as="targetPoint"/>
                        <Array as="points"/>
                    </mxGeometry>
                </mxCell>
                <mxCell id="87" value="RX2" style="edgeLabel;html=1;align=center;verticalAlign=middle;resizable=0;points=[];" parent="36" vertex="1" connectable="0">
                    <mxGeometry x="-0.1533" relative="1" as="geometry">
                        <mxPoint as="offset"/>
                    </mxGeometry>
                </mxCell>
                <mxCell id="37" value="" style="edgeStyle=none;orthogonalLoop=1;jettySize=auto;html=1;strokeColor=#FF3333;exitX=0.998;exitY=0.569;exitDx=0;exitDy=0;exitPerimeter=0;" parent="62" source="2" edge="1">
                    <mxGeometry width="80" relative="1" as="geometry">
                        <mxPoint x="118.9098504500285" y="168.75" as="sourcePoint"/>
                        <mxPoint x="219.99999999999997" y="168.590625" as="targetPoint"/>
                        <Array as="points"/>
                    </mxGeometry>
                </mxCell>
                <mxCell id="86" value="TX2" style="edgeLabel;html=1;align=center;verticalAlign=middle;resizable=0;points=[];" parent="37" vertex="1" connectable="0">
                    <mxGeometry x="-0.2393" relative="1" as="geometry">
                        <mxPoint as="offset"/>
                    </mxGeometry>
                </mxCell>
                <mxCell id="38" value="" style="edgeStyle=none;orthogonalLoop=1;jettySize=auto;html=1;strokeColor=#FF3333;exitX=1;exitY=0.5;exitDx=0;exitDy=0;" parent="62" source="2" edge="1">
                    <mxGeometry width="80" relative="1" as="geometry">
                        <mxPoint x="118.96684125239759" y="150.07499999999987" as="sourcePoint"/>
                        <mxPoint x="219.99999999999997" y="149.99999999999994" as="targetPoint"/>
                        <Array as="points"/>
                    </mxGeometry>
                </mxCell>
                <mxCell id="85" value="D5" style="edgeLabel;html=1;align=center;verticalAlign=middle;resizable=0;points=[];" parent="38" vertex="1" connectable="0">
                    <mxGeometry x="-0.2975" relative="1" as="geometry">
                        <mxPoint as="offset"/>
                    </mxGeometry>
                </mxCell>
                <mxCell id="39" value="" style="edgeStyle=none;orthogonalLoop=1;jettySize=auto;html=1;strokeColor=#FF3333;exitX=0.992;exitY=0.44;exitDx=0;exitDy=0;exitPerimeter=0;" parent="62" source="2" edge="1">
                    <mxGeometry width="80" relative="1" as="geometry">
                        <mxPoint x="118.96684125239759" y="131.32499999999993" as="sourcePoint"/>
                        <mxPoint x="219.99999999999997" y="131.25" as="targetPoint"/>
                        <Array as="points"/>
                    </mxGeometry>
                </mxCell>
                <mxCell id="84" value="D18" style="edgeLabel;html=1;align=center;verticalAlign=middle;resizable=0;points=[];" parent="39" vertex="1" connectable="0">
                    <mxGeometry x="-0.2525" relative="1" as="geometry">
                        <mxPoint as="offset"/>
                    </mxGeometry>
                </mxCell>
                <mxCell id="40" value="" style="edgeStyle=none;orthogonalLoop=1;jettySize=auto;html=1;strokeColor=#FF3333;exitX=0.998;exitY=0.373;exitDx=0;exitDy=0;exitPerimeter=0;" parent="62" source="2" edge="1">
                    <mxGeometry width="80" relative="1" as="geometry">
                        <mxPoint x="118.96684125239759" y="112.57499999999993" as="sourcePoint"/>
                        <mxPoint x="219.99999999999997" y="112.5" as="targetPoint"/>
                        <Array as="points"/>
                    </mxGeometry>
                </mxCell>
                <mxCell id="83" value="D19" style="edgeLabel;html=1;align=center;verticalAlign=middle;resizable=0;points=[];" parent="40" vertex="1" connectable="0">
                    <mxGeometry x="-0.1189" relative="1" as="geometry">
                        <mxPoint as="offset"/>
                    </mxGeometry>
                </mxCell>
                <mxCell id="41" value="" style="edgeStyle=none;orthogonalLoop=1;jettySize=auto;html=1;strokeColor=#FF3333;exitX=0.995;exitY=0.307;exitDx=0;exitDy=0;exitPerimeter=0;" parent="62" source="2" edge="1">
                    <mxGeometry width="80" relative="1" as="geometry">
                        <mxPoint x="118.96684125239759" y="93.82499999999993" as="sourcePoint"/>
                        <mxPoint x="219.99999999999997" y="93.75" as="targetPoint"/>
                        <Array as="points"/>
                    </mxGeometry>
                </mxCell>
                <mxCell id="82" value="D21" style="edgeLabel;html=1;align=center;verticalAlign=middle;resizable=0;points=[];" parent="41" vertex="1" connectable="0">
                    <mxGeometry x="-0.1305" y="1" relative="1" as="geometry">
                        <mxPoint as="offset"/>
                    </mxGeometry>
                </mxCell>
                <mxCell id="42" value="" style="edgeStyle=none;orthogonalLoop=1;jettySize=auto;html=1;strokeColor=#FF3333;exitX=1;exitY=0.25;exitDx=0;exitDy=0;" parent="62" source="2" edge="1">
                    <mxGeometry width="80" relative="1" as="geometry">
                        <mxPoint x="118.9098504500285" y="75" as="sourcePoint"/>
                        <mxPoint x="219.99999999999997" y="75" as="targetPoint"/>
                        <Array as="points"/>
                    </mxGeometry>
                </mxCell>
                <mxCell id="81" value="RX0" style="edgeLabel;html=1;align=center;verticalAlign=middle;resizable=0;points=[];" parent="42" vertex="1" connectable="0">
                    <mxGeometry x="-0.1766" y="2" relative="1" as="geometry">
                        <mxPoint as="offset"/>
                    </mxGeometry>
                </mxCell>
                <mxCell id="43" value="" style="edgeStyle=none;orthogonalLoop=1;jettySize=auto;html=1;strokeColor=#FF3333;exitX=0.996;exitY=0.187;exitDx=0;exitDy=0;exitPerimeter=0;" parent="62" source="2" edge="1">
                    <mxGeometry width="80" relative="1" as="geometry">
                        <mxPoint x="165.35667591893431" y="56.25" as="sourcePoint"/>
                        <mxPoint x="219.99999999999997" y="56.24999999999996" as="targetPoint"/>
                        <Array as="points"/>
                    </mxGeometry>
                </mxCell>
                <mxCell id="80" value="TX0" style="edgeLabel;html=1;align=center;verticalAlign=middle;resizable=0;points=[];" parent="43" vertex="1" connectable="0">
                    <mxGeometry x="-0.0956" y="1" relative="1" as="geometry">
                        <mxPoint as="offset"/>
                    </mxGeometry>
                </mxCell>
                <mxCell id="44" value="" style="edgeStyle=none;orthogonalLoop=1;jettySize=auto;html=1;strokeColor=#FF3333;exitX=0.995;exitY=0.125;exitDx=0;exitDy=0;exitPerimeter=0;" parent="62" source="2" edge="1">
                    <mxGeometry width="80" relative="1" as="geometry">
                        <mxPoint x="118.96684125239759" y="37.57499999999999" as="sourcePoint"/>
                        <mxPoint x="219.99999999999997" y="37.49999999999995" as="targetPoint"/>
                        <Array as="points"/>
                    </mxGeometry>
                </mxCell>
                <mxCell id="79" value="D22" style="edgeLabel;html=1;align=center;verticalAlign=middle;resizable=0;points=[];" parent="44" vertex="1" connectable="0">
                    <mxGeometry x="-0.0583" relative="1" as="geometry">
                        <mxPoint as="offset"/>
                    </mxGeometry>
                </mxCell>
                <mxCell id="45" value="" style="edgeStyle=none;orthogonalLoop=1;jettySize=auto;html=1;strokeColor=#FF3333;exitX=0.998;exitY=0.059;exitDx=0;exitDy=0;exitPerimeter=0;" parent="62" source="2" edge="1">
                    <mxGeometry width="80" relative="1" as="geometry">
                        <mxPoint x="118.96684125239759" y="18.75" as="sourcePoint"/>
                        <mxPoint x="219.99999999999997" y="18.74999999999995" as="targetPoint"/>
                        <Array as="points"/>
                    </mxGeometry>
                </mxCell>
                <mxCell id="78" value="D23" style="edgeLabel;html=1;align=center;verticalAlign=middle;resizable=0;points=[];" parent="45" vertex="1" connectable="0">
                    <mxGeometry x="-0.12" y="1" relative="1" as="geometry">
                        <mxPoint as="offset"/>
                    </mxGeometry>
                </mxCell>
                <mxCell id="47" value="" style="edgeStyle=orthogonalEdgeStyle;orthogonalLoop=1;jettySize=auto;html=1;strokeColor=#FF3333;exitX=0.002;exitY=0.939;exitDx=0;exitDy=0;exitPerimeter=0;rounded=0;" parent="62" source="2" edge="1">
                    <mxGeometry width="80" relative="1" as="geometry">
                        <mxPoint x="-53.2166204053286" y="281.278125" as="sourcePoint"/>
                        <mxPoint y="281.70731707317077" as="targetPoint"/>
                    </mxGeometry>
                </mxCell>
                <mxCell id="77" value="VIN" style="edgeLabel;html=1;align=center;verticalAlign=middle;resizable=0;points=[];" parent="47" vertex="1" connectable="0">
                    <mxGeometry x="-0.1983" relative="1" as="geometry">
                        <mxPoint as="offset"/>
                    </mxGeometry>
                </mxCell>
                <mxCell id="48" value="" style="edgeStyle=none;orthogonalLoop=1;jettySize=auto;html=1;strokeColor=#FF3333;exitX=0.002;exitY=0.877;exitDx=0;exitDy=0;exitPerimeter=0;rounded=0;" parent="62" source="2" edge="1">
                    <mxGeometry width="80" relative="1" as="geometry">
                        <mxPoint x="-52.670187164517806" y="263.27812500000016" as="sourcePoint"/>
                        <mxPoint x="1.7707856450410053" y="263.1281250000002" as="targetPoint"/>
                        <Array as="points"/>
                    </mxGeometry>
                </mxCell>
                <mxCell id="76" value="GND" style="edgeLabel;html=1;align=center;verticalAlign=middle;resizable=0;points=[];" parent="48" vertex="1" connectable="0">
                    <mxGeometry x="-0.1859" y="1" relative="1" as="geometry">
                        <mxPoint as="offset"/>
                    </mxGeometry>
                </mxCell>
                <mxCell id="49" value="" style="edgeStyle=none;orthogonalLoop=1;jettySize=auto;html=1;strokeColor=#FF3333;exitX=-0.003;exitY=0.814;exitDx=0;exitDy=0;exitPerimeter=0;rounded=0;" parent="62" source="2" edge="1">
                    <mxGeometry width="80" relative="1" as="geometry">
                        <mxPoint x="-52.260362233909895" y="244.07812500000003" as="sourcePoint"/>
                        <mxPoint x="2.6561784675612117" y="244.22812500000003" as="targetPoint"/>
                        <Array as="points"/>
                    </mxGeometry>
                </mxCell>
                <mxCell id="75" value="D13" style="edgeLabel;html=1;align=center;verticalAlign=middle;resizable=0;points=[];" parent="49" vertex="1" connectable="0">
                    <mxGeometry x="-0.1859" relative="1" as="geometry">
                        <mxPoint as="offset"/>
                    </mxGeometry>
                </mxCell>
                <mxCell id="50" value="" style="edgeStyle=none;orthogonalLoop=1;jettySize=auto;html=1;strokeColor=#FF3333;exitX=0;exitY=0.75;exitDx=0;exitDy=0;rounded=0;" parent="62" source="2" edge="1">
                    <mxGeometry width="80" relative="1" as="geometry">
                        <mxPoint x="-51.98714561350451" y="225.47812500000003" as="sourcePoint"/>
                        <mxPoint x="2.6561784675612117" y="225.47812500000003" as="targetPoint"/>
                        <Array as="points"/>
                    </mxGeometry>
                </mxCell>
                <mxCell id="74" value="D12" style="edgeLabel;html=1;align=center;verticalAlign=middle;resizable=0;points=[];" parent="50" vertex="1" connectable="0">
                    <mxGeometry x="-0.1784" y="-1" relative="1" as="geometry">
                        <mxPoint as="offset"/>
                    </mxGeometry>
                </mxCell>
                <mxCell id="51" value="" style="edgeStyle=none;orthogonalLoop=1;jettySize=auto;html=1;strokeColor=#FF3333;exitX=0.005;exitY=0.689;exitDx=0;exitDy=0;exitPerimeter=0;rounded=0;" parent="62" source="2" edge="1">
                    <mxGeometry width="80" relative="1" as="geometry">
                        <mxPoint x="-51.98714561350451" y="206.87812499999993" as="sourcePoint"/>
                        <mxPoint x="2.6561784675612117" y="206.72812500000003" as="targetPoint"/>
                        <Array as="points"/>
                    </mxGeometry>
                </mxCell>
                <mxCell id="73" value="D14" style="edgeLabel;html=1;align=center;verticalAlign=middle;resizable=0;points=[];" parent="51" vertex="1" connectable="0">
                    <mxGeometry x="-0.1356" relative="1" as="geometry">
                        <mxPoint as="offset"/>
                    </mxGeometry>
                </mxCell>
                <mxCell id="52" value="" style="edgeStyle=none;orthogonalLoop=1;jettySize=auto;html=1;strokeColor=#FF3333;exitX=0.004;exitY=0.626;exitDx=0;exitDy=0;exitPerimeter=0;rounded=0;" parent="62" source="2" edge="1">
                    <mxGeometry width="80" relative="1" as="geometry">
                        <mxPoint x="-50.7576708216804" y="187.978125" as="sourcePoint"/>
                        <mxPoint x="2.6561784675612117" y="187.978125" as="targetPoint"/>
                        <Array as="points"/>
                    </mxGeometry>
                </mxCell>
                <mxCell id="72" value="D27" style="edgeLabel;html=1;align=center;verticalAlign=middle;resizable=0;points=[];" parent="52" vertex="1" connectable="0">
                    <mxGeometry x="-0.1524" y="1" relative="1" as="geometry">
                        <mxPoint as="offset"/>
                    </mxGeometry>
                </mxCell>
                <mxCell id="53" value="" style="edgeStyle=none;orthogonalLoop=1;jettySize=auto;html=1;strokeColor=#FF3333;exitX=0.004;exitY=0.564;exitDx=0;exitDy=0;exitPerimeter=0;rounded=0;" parent="62" source="2" edge="1">
                    <mxGeometry width="80" relative="1" as="geometry">
                        <mxPoint x="-52.260362233909895" y="171.17812499999994" as="sourcePoint"/>
                        <mxPoint x="2.6561784675612117" y="169.06874999999994" as="targetPoint"/>
                        <Array as="points"/>
                    </mxGeometry>
                </mxCell>
                <mxCell id="71" value="D26" style="edgeLabel;html=1;align=center;verticalAlign=middle;resizable=0;points=[];" parent="53" vertex="1" connectable="0">
                    <mxGeometry x="-0.2388" y="1" relative="1" as="geometry">
                        <mxPoint as="offset"/>
                    </mxGeometry>
                </mxCell>
                <mxCell id="54" value="" style="edgeStyle=none;orthogonalLoop=1;jettySize=auto;html=1;strokeColor=#FF3333;exitX=0;exitY=0.5;exitDx=0;exitDy=0;rounded=0;" parent="62" source="2" edge="1">
                    <mxGeometry width="80" relative="1" as="geometry">
                        <mxPoint x="-51.98714561350451" y="150.478125" as="sourcePoint"/>
                        <mxPoint x="2.6561784675612117" y="150.478125" as="targetPoint"/>
                        <Array as="points"/>
                    </mxGeometry>
                </mxCell>
                <mxCell id="70" value="D25" style="edgeLabel;html=1;align=center;verticalAlign=middle;resizable=0;points=[];" parent="54" vertex="1" connectable="0">
                    <mxGeometry x="-0.3084" y="-1" relative="1" as="geometry">
                        <mxPoint as="offset"/>
                    </mxGeometry>
                </mxCell>
                <mxCell id="55" value="" style="edgeStyle=none;orthogonalLoop=1;jettySize=auto;html=1;strokeColor=#FF3333;exitX=0.005;exitY=0.44;exitDx=0;exitDy=0;exitPerimeter=0;rounded=0;" parent="62" source="2" edge="1">
                    <mxGeometry width="80" relative="1" as="geometry">
                        <mxPoint x="-53.080012095125745" y="132.47812499999995" as="sourcePoint"/>
                        <mxPoint x="2.6561784675612117" y="131.728125" as="targetPoint"/>
                        <Array as="points"/>
                    </mxGeometry>
                </mxCell>
                <mxCell id="69" value="D33" style="edgeLabel;html=1;align=center;verticalAlign=middle;resizable=0;points=[];" parent="55" vertex="1" connectable="0">
                    <mxGeometry x="-0.2496" y="-2" relative="1" as="geometry">
                        <mxPoint as="offset"/>
                    </mxGeometry>
                </mxCell>
                <mxCell id="56" value="" style="edgeStyle=none;orthogonalLoop=1;jettySize=auto;html=1;strokeColor=#FF3333;exitX=0.002;exitY=0.376;exitDx=0;exitDy=0;exitPerimeter=0;rounded=0;" parent="62" source="2" edge="1">
                    <mxGeometry width="80" relative="1" as="geometry">
                        <mxPoint x="-52.260362233909895" y="112.37812500000001" as="sourcePoint"/>
                        <mxPoint x="2.6561784675612117" y="112.978125" as="targetPoint"/>
                        <Array as="points"/>
                    </mxGeometry>
                </mxCell>
                <mxCell id="68" value="D32" style="edgeLabel;html=1;align=center;verticalAlign=middle;resizable=0;points=[];" parent="56" vertex="1" connectable="0">
                    <mxGeometry x="-0.1866" relative="1" as="geometry">
                        <mxPoint as="offset"/>
                    </mxGeometry>
                </mxCell>
                <mxCell id="57" value="" style="edgeStyle=none;orthogonalLoop=1;jettySize=auto;html=1;strokeColor=#FF3333;exitX=0;exitY=0.313;exitDx=0;exitDy=0;exitPerimeter=0;rounded=0;" parent="62" source="2" edge="1">
                    <mxGeometry width="80" relative="1" as="geometry">
                        <mxPoint x="-52.670187164517806" y="92.57812500000011" as="sourcePoint"/>
                        <mxPoint x="2.6561784675612117" y="94.228125" as="targetPoint"/>
                        <Array as="points"/>
                    </mxGeometry>
                </mxCell>
                <mxCell id="67" value="D35" style="edgeLabel;html=1;align=center;verticalAlign=middle;resizable=0;points=[];" parent="57" vertex="1" connectable="0">
                    <mxGeometry x="-0.221" relative="1" as="geometry">
                        <mxPoint as="offset"/>
                    </mxGeometry>
                </mxCell>
                <mxCell id="58" value="" style="edgeStyle=none;orthogonalLoop=1;jettySize=auto;html=1;strokeColor=#FF3333;rounded=0;exitX=0;exitY=0.25;exitDx=0;exitDy=0;" parent="62" source="2" edge="1">
                    <mxGeometry width="80" relative="1" as="geometry">
                        <mxPoint x="-51.85053730330184" y="75.9375" as="sourcePoint"/>
                        <mxPoint x="2.6561784675612117" y="75.478125" as="targetPoint"/>
                        <Array as="points"/>
                    </mxGeometry>
                </mxCell>
                <mxCell id="66" value="D34" style="edgeLabel;html=1;align=center;verticalAlign=middle;resizable=0;points=[];" parent="58" vertex="1" connectable="0">
                    <mxGeometry x="-0.1048" y="1" relative="1" as="geometry">
                        <mxPoint as="offset"/>
                    </mxGeometry>
                </mxCell>
                <mxCell id="59" value="" style="edgeStyle=none;orthogonalLoop=1;jettySize=auto;html=1;strokeColor=#FF3333;exitX=-0.001;exitY=0.189;exitDx=0;exitDy=0;exitPerimeter=0;rounded=0;" parent="62" source="2" edge="1">
                    <mxGeometry width="80" relative="1" as="geometry">
                        <mxPoint x="-52.533578854315294" y="56.57812500000003" as="sourcePoint"/>
                        <mxPoint x="2.6561784675612117" y="56.728125000000006" as="targetPoint"/>
                        <Array as="points"/>
                    </mxGeometry>
                </mxCell>
                <mxCell id="65" value="VN" style="edgeLabel;html=1;align=center;verticalAlign=middle;resizable=0;points=[];" parent="59" vertex="1" connectable="0">
                    <mxGeometry x="-0.1514" y="-1" relative="1" as="geometry">
                        <mxPoint as="offset"/>
                    </mxGeometry>
                </mxCell>
                <mxCell id="60" value="" style="edgeStyle=none;orthogonalLoop=1;jettySize=auto;html=1;strokeColor=#FF3333;exitX=0.006;exitY=0.126;exitDx=0;exitDy=0;exitPerimeter=0;rounded=0;" parent="62" source="2" edge="1">
                    <mxGeometry width="80" relative="1" as="geometry">
                        <mxPoint x="-52.670187164517806" y="37.97812499999999" as="sourcePoint"/>
                        <mxPoint x="2.6561784675612117" y="37.97812499999999" as="targetPoint"/>
                        <Array as="points"/>
                    </mxGeometry>
                </mxCell>
                <mxCell id="64" value="VP" style="edgeLabel;html=1;align=center;verticalAlign=middle;resizable=0;points=[];" parent="60" vertex="1" connectable="0">
                    <mxGeometry x="-0.027" y="3" relative="1" as="geometry">
                        <mxPoint x="3" y="-5" as="offset"/>
                    </mxGeometry>
                </mxCell>
                <mxCell id="61" value="" style="edgeStyle=none;orthogonalLoop=1;jettySize=auto;html=1;strokeColor=#FF3333;exitX=0.001;exitY=0.064;exitDx=0;exitDy=0;exitPerimeter=0;rounded=0;" parent="62" source="2" edge="1">
                    <mxGeometry width="80" relative="1" as="geometry">
                        <mxPoint x="-52.260362233909895" y="18.178124999999987" as="sourcePoint"/>
                        <mxPoint x="2.6561784675612117" y="19.22812499999999" as="targetPoint"/>
                        <Array as="points"/>
                    </mxGeometry>
                </mxCell>
                <mxCell id="63" value="EN" style="edgeLabel;html=1;align=center;verticalAlign=middle;resizable=0;points=[];" parent="61" vertex="1" connectable="0">
                    <mxGeometry x="-0.279" y="1" relative="1" as="geometry">
                        <mxPoint as="offset"/>
                    </mxGeometry>
                </mxCell>
                <mxCell id="94" style="edgeStyle=none;html=1;exitX=0;exitY=0.5;exitDx=0;exitDy=0;strokeColor=#FF3333;" parent="1" source="93" edge="1">
                    <mxGeometry relative="1" as="geometry">
                        <mxPoint x="600" y="939.8260869565217" as="targetPoint"/>
                    </mxGeometry>
                </mxCell>
                <mxCell id="107" value="VCC" style="edgeLabel;html=1;align=center;verticalAlign=middle;resizable=0;points=[];" parent="94" vertex="1" connectable="0">
                    <mxGeometry x="-0.1529" y="-1" relative="1" as="geometry">
                        <mxPoint as="offset"/>
                    </mxGeometry>
                </mxCell>
                <mxCell id="95" style="edgeStyle=none;html=1;exitX=-0.002;exitY=0.318;exitDx=0;exitDy=0;exitPerimeter=0;strokeColor=#FF3333;" parent="1" source="93" edge="1">
                    <mxGeometry relative="1" as="geometry">
                        <mxPoint x="600" y="915" as="targetPoint"/>
                    </mxGeometry>
                </mxCell>
                <mxCell id="106" value="GND" style="edgeLabel;html=1;align=center;verticalAlign=middle;resizable=0;points=[];" parent="95" vertex="1" connectable="0">
                    <mxGeometry x="-0.1418" y="1" relative="1" as="geometry">
                        <mxPoint as="offset"/>
                    </mxGeometry>
                </mxCell>
                <mxCell id="96" style="edgeStyle=none;html=1;exitX=-0.005;exitY=0.861;exitDx=0;exitDy=0;exitPerimeter=0;strokeColor=#FF3333;" parent="1" source="93" edge="1">
                    <mxGeometry relative="1" as="geometry">
                        <mxPoint x="600" y="991" as="targetPoint"/>
                    </mxGeometry>
                </mxCell>
                <mxCell id="109" value="SCL" style="edgeLabel;html=1;align=center;verticalAlign=middle;resizable=0;points=[];" parent="96" vertex="1" connectable="0">
                    <mxGeometry x="-0.2223" relative="1" as="geometry">
                        <mxPoint as="offset"/>
                    </mxGeometry>
                </mxCell>
                <mxCell id="97" style="edgeStyle=none;html=1;exitX=-0.008;exitY=0.691;exitDx=0;exitDy=0;exitPerimeter=0;strokeColor=#FF3333;" parent="1" source="93" edge="1">
                    <mxGeometry relative="1" as="geometry">
                        <mxPoint x="600" y="967" as="targetPoint"/>
                    </mxGeometry>
                </mxCell>
                <mxCell id="108" value="SDA" style="edgeLabel;html=1;align=center;verticalAlign=middle;resizable=0;points=[];" parent="97" vertex="1" connectable="0">
                    <mxGeometry x="-0.2328" y="1" relative="1" as="geometry">
                        <mxPoint as="offset"/>
                    </mxGeometry>
                </mxCell>
                <mxCell id="98" style="edgeStyle=none;html=1;exitX=0.141;exitY=-0.002;exitDx=0;exitDy=0;exitPerimeter=0;strokeColor=#FF3333;endArrow=cross;endFill=0;" parent="1" source="93" edge="1">
                    <mxGeometry relative="1" as="geometry">
                        <mxPoint x="670" y="830" as="targetPoint"/>
                    </mxGeometry>
                </mxCell>
                <mxCell id="93" value="PN532" style="whiteSpace=wrap;html=1;aspect=fixed;strokeColor=#FF3333;" parent="1" vertex="1">
                    <mxGeometry x="650" y="870" width="140" height="140" as="geometry"/>
                </mxCell>
                <mxCell id="99" style="edgeStyle=none;html=1;exitX=0.324;exitY=-0.004;exitDx=0;exitDy=0;exitPerimeter=0;strokeColor=#FF3333;endArrow=cross;endFill=0;" parent="1" source="93" edge="1">
                    <mxGeometry relative="1" as="geometry">
                        <mxPoint x="695" y="830" as="targetPoint"/>
                        <mxPoint x="690" y="870" as="sourcePoint"/>
                    </mxGeometry>
                </mxCell>
                <mxCell id="100" style="edgeStyle=none;html=1;exitX=0.461;exitY=0.005;exitDx=0;exitDy=0;exitPerimeter=0;strokeColor=#FF3333;endArrow=cross;endFill=0;" parent="1" source="93" edge="1">
                    <mxGeometry relative="1" as="geometry">
                        <mxPoint x="715" y="830" as="targetPoint"/>
                        <mxPoint x="710" y="870" as="sourcePoint"/>
                    </mxGeometry>
                </mxCell>
                <mxCell id="101" style="edgeStyle=none;html=1;exitX=0.572;exitY=0.002;exitDx=0;exitDy=0;exitPerimeter=0;strokeColor=#FF3333;endArrow=cross;endFill=0;" parent="1" source="93" edge="1">
                    <mxGeometry relative="1" as="geometry">
                        <mxPoint x="730.26" y="830.28" as="targetPoint"/>
                        <mxPoint x="730" y="870" as="sourcePoint"/>
                    </mxGeometry>
                </mxCell>
                <mxCell id="102" style="edgeStyle=none;html=1;exitX=0.706;exitY=-0.001;exitDx=0;exitDy=0;exitPerimeter=0;strokeColor=#FF3333;endArrow=cross;endFill=0;" parent="1" source="93" edge="1">
                    <mxGeometry relative="1" as="geometry">
                        <mxPoint x="750.26" y="830.28" as="targetPoint"/>
                        <mxPoint x="750" y="870" as="sourcePoint"/>
                    </mxGeometry>
                </mxCell>
                <mxCell id="103" style="edgeStyle=none;html=1;exitX=0.939;exitY=0.002;exitDx=0;exitDy=0;exitPerimeter=0;strokeColor=#FF3333;endArrow=cross;endFill=0;" parent="1" source="93" edge="1">
                    <mxGeometry relative="1" as="geometry">
                        <mxPoint x="780" y="830" as="targetPoint"/>
                        <mxPoint x="770" y="870" as="sourcePoint"/>
                    </mxGeometry>
                </mxCell>
                <mxCell id="104" style="edgeStyle=none;html=1;exitX=0.815;exitY=-0.004;exitDx=0;exitDy=0;exitPerimeter=0;strokeColor=#FF3333;endArrow=cross;endFill=0;" parent="1" source="93" edge="1">
                    <mxGeometry relative="1" as="geometry">
                        <mxPoint x="764" y="830" as="targetPoint"/>
                        <mxPoint x="770" y="870" as="sourcePoint"/>
                    </mxGeometry>
                </mxCell>
                <mxCell id="105" style="edgeStyle=none;html=1;exitX=0.231;exitY=-0.004;exitDx=0;exitDy=0;exitPerimeter=0;strokeColor=#FF3333;endArrow=cross;endFill=0;" parent="1" source="93" edge="1">
                    <mxGeometry relative="1" as="geometry">
                        <mxPoint x="682" y="830" as="targetPoint"/>
                        <mxPoint x="679.7400000000001" y="870.0000000000001" as="sourcePoint"/>
                    </mxGeometry>
                </mxCell>
                <mxCell id="115" value="" style="group" vertex="1" connectable="0" parent="1">
                    <mxGeometry x="160" y="660" width="90" height="52" as="geometry"/>
                </mxCell>
                <mxCell id="112" value="&lt;font color=&quot;#000000&quot;&gt;3.7V&lt;/font&gt;" style="html=1;verticalLabelPosition=bottom;align=center;labelBackgroundColor=#ffffff;verticalAlign=top;strokeWidth=2;strokeColor=#0080F0;shadow=0;dashed=0;shape=mxgraph.ios7.icons.battery;" parent="115" vertex="1">
                    <mxGeometry width="90" height="52" as="geometry"/>
                </mxCell>
                <mxCell id="113" value="+" style="text;html=1;strokeColor=none;fillColor=none;align=center;verticalAlign=middle;whiteSpace=wrap;rounded=0;" vertex="1" parent="115">
                    <mxGeometry x="50" y="11" width="30" height="30" as="geometry"/>
                </mxCell>
                <mxCell id="114" value="-" style="text;html=1;strokeColor=none;fillColor=none;align=center;verticalAlign=middle;whiteSpace=wrap;rounded=0;" vertex="1" parent="115">
                    <mxGeometry y="11" width="40" height="30" as="geometry"/>
                </mxCell>
            </root>
        </mxGraphModel>
    </diagram>
</mxfile>